<?xml version="1.0" encoding="UTF-8"?>
<svg width="21px" height="21px" viewBox="0 0 21 21" version="1.1" xmlns="http://www.w3.org/2000/svg" xmlns:xlink="http://www.w3.org/1999/xlink">
    <!-- Generator: Sketch 60 (88103) - https://sketch.com -->
    <title>close-circle-outline</title>
    <desc>Created with Sketch.</desc>
    <defs>
        <rect id="path-1" x="0" y="0" width="1145" height="690" rx="23"></rect>
    </defs>
    <g id="Page-1" stroke="none" stroke-width="1" fill="none" fill-rule="evenodd">
        <g id="Desktop---5" transform="translate(-931.000000, -265.000000)">
            <g id="Rectangle" transform="translate(135.000000, 173.000000)">
                <mask id="mask-2" fill="white">
                    <use xlink:href="#path-1"></use>
                </mask>
                <use id="Mask" fill="#EFEFEF" xlink:href="#path-1"></use>
                <rect stroke="#FFFFFF" fill="#005888" mask="url(#mask-2)" x="0" y="0" width="1145" height="136"></rect>
            </g>
            <g id="Group-5" transform="translate(179.000000, 262.000000)" fill="#D97186" fill-rule="nonzero">
                <g id="close-circle-outline" transform="translate(752.000000, 3.000000)">
                    <path d="M10.5,0 C4.70295872,0 0,4.70295872 0,10.5 C0,16.2970413 4.70295872,21 10.5,21 C16.2970413,21 21,16.2970413 21,10.5 C21,4.70295872 16.2970413,0 10.5,0 Z M10.5,1.65110565 C15.3851608,1.65110565 19.3488943,5.61483919 19.3488943,10.5 C19.3488943,15.3851608 15.3851608,19.3488943 10.5,19.3488943 C5.61483919,19.3488943 1.65110565,15.3851608 1.65110565,10.5 C1.65110565,5.61483919 5.61483919,1.65110565 10.5,1.65110565 Z" id="Path"></path>
                    <path d="M7.23879192,7.23879192 C7.55275908,6.92482476 8.05909106,6.92046411 8.37840169,7.22570996 L8.39178132,7.23879192 L14.7612081,13.6082187 C15.0795973,13.9266079 15.0795973,14.4428188 14.7612081,14.7612081 C14.4472409,15.0751752 13.9409089,15.0795359 13.6215983,14.77429 L13.6082187,14.7612081 L7.23879192,8.39178132 C6.92040269,8.07339209 6.92040269,7.55718116 7.23879192,7.23879192 Z" id="Path"></path>
                    <path d="M13.6082187,7.23879192 C13.9266079,6.92040269 14.4428188,6.92040269 14.7612081,7.23879192 C15.0751752,7.55275908 15.0795359,8.05909106 14.77429,8.37840169 L14.7612081,8.39178132 L8.39178132,14.7612081 C8.07339209,15.0795973 7.55718116,15.0795973 7.23879192,14.7612081 C6.92482476,14.4472409 6.92046411,13.9409089 7.22570996,13.6215983 L7.23879192,13.6082187 L13.6082187,7.23879192 Z" id="Path"></path>
                </g>
            </g>
        </g>
    </g>
</svg>