<?xml version="1.0" encoding="UTF-8"?>
<svg width="21px" height="21px" viewBox="0 0 21 21" version="1.1" xmlns="http://www.w3.org/2000/svg" xmlns:xlink="http://www.w3.org/1999/xlink">
    <!-- Generator: Sketch 60 (88103) - https://sketch.com -->
    <title>shield-checkmark-outline copy 3</title>
    <desc>Created with Sketch.</desc>
    <defs>
        <rect id="path-1" x="0" y="0" width="1145" height="690" rx="23"></rect>
    </defs>
    <g id="Page-1" stroke="none" stroke-width="1" fill="none" fill-rule="evenodd">
        <g id="Desktop---5" transform="translate(-364.000000, -267.000000)">
            <g id="Rectangle" transform="translate(135.000000, 173.000000)">
                <mask id="mask-2" fill="white">
                    <use xlink:href="#path-1"></use>
                </mask>
                <use id="Mask" fill="#EFEFEF" xlink:href="#path-1"></use>
                <rect stroke="#FFFFFF" fill="#005888" mask="url(#mask-2)" x="0" y="0" width="1145" height="136"></rect>
            </g>
            <g id="Group-5" transform="translate(179.000000, 262.000000)" fill="#A9CD64" fill-rule="nonzero">
                <g id="shield-checkmark-outline-copy-3" transform="translate(185.000000, 5.000000)">
                    <path d="M13.5650788,6.30008838 C13.8604309,5.93743907 14.376459,5.89793479 14.7176599,6.21185309 C15.05425,6.52152926 15.0949687,7.05945724 14.8124683,7.42208437 L14.8006767,7.43688713 L9.69988215,13.6999201 C9.39552664,14.0736243 8.86069369,14.1016128 8.52330609,13.7651886 L8.51026196,13.7518968 L6.24528823,11.3934734 C5.92292802,11.0578131 5.91761655,10.5079548 6.23342472,10.1653306 C6.54484666,9.82746502 7.05223894,9.8172828 7.37538732,10.138933 L7.38893076,10.1527213 L9.03307829,11.8646762 L13.5650788,6.30008838 Z" id="Path"></path>
                    <path d="M10.1602132,0.0731693799 L9.9378281,0.173321051 L9.72024612,0.270719365 C9.68437081,0.286726653 9.64868669,0.30262198 9.6131893,0.318406725 L9.40240995,0.411799275 C9.3676416,0.42714722 9.33305105,0.442387346 9.29863382,0.457521033 L9.09417461,0.547056943 C8.89172382,0.635337683 8.6951911,0.719886053 8.50361143,0.801000303 L8.31364705,0.880980893 C6.08442636,1.8141336 4.50372982,2.28033512 1.97256565,2.77378304 L1.75636614,2.81555877 C1.71994388,2.82253588 1.68332414,2.82952116 1.64650245,2.83651599 L1.42311315,2.87861056 C1.38546579,2.8856491 1.34760754,2.89269995 1.30953394,2.89976449 L1.07847236,2.94232704 L0.842027861,2.98528442 C0.802159956,2.99248057 0.762058828,2.99969593 0.721720009,3.00693189 C0.34749739,3.07405973 0.0675102595,3.38808752 0.0435698287,3.76753114 C-0.141019336,6.6931753 0.264919655,9.32628999 1.1852311,11.6738541 C1.9726396,13.6824044 3.11526791,15.4306978 4.53146791,16.9332833 C5.65036512,18.1204311 6.88328997,19.0963086 8.15311865,19.8792479 L8.23921048,19.9320126 L8.3244205,19.9836106 L8.40872862,20.034046 C8.4227037,20.0423553 8.43664036,20.0506163 8.45053819,20.0588291 L8.53345576,20.1075285 L8.61542119,20.1550758 L8.69641436,20.2014751 C8.70983108,20.2091128 8.72320646,20.216703 8.73654007,20.2242455 L8.81603717,20.2689306 L8.89451177,20.3124781 L8.97194377,20.3548921 L9.04831307,20.3961769 C9.06095161,20.4029638 9.07354504,20.4097039 9.08609293,20.4163971 L9.16083048,20.4559957 C9.17319456,20.4625022 9.18551226,20.468962 9.19778316,20.4753752 L9.27084376,20.5132971 L9.34276125,20.5501063 C9.35465112,20.5561487 9.36649253,20.5621449 9.37828505,20.568095 L9.44845021,20.603243 L9.51742201,20.6372888 L9.58518036,20.6702364 L9.65170517,20.7020902 L9.71697632,20.7328541 L9.78097373,20.7625324 L9.84367729,20.7911293 C9.85401894,20.7958055 9.86430585,20.8004369 9.87453759,20.8050235 L9.93526269,20.8320059 L9.99464368,20.8579173 L10.0526605,20.8827617 L10.109293,20.9065434 L10.1645211,20.9292665 C10.1736076,20.9329657 10.1826348,20.936621 10.1916022,20.9402324 C10.3894788,21.0199225 10.6105212,21.0199225 10.8083978,20.9402324 L10.8629162,20.918037 L10.918849,20.8947852 L10.9761761,20.8704726 C10.9858457,20.8663319 10.9955726,20.8621468 11.0053563,20.8579173 L11.0647373,20.8320059 L11.1254624,20.8050235 L11.1875115,20.7769658 L11.2508645,20.7478287 L11.3155013,20.7176081 L11.3814018,20.6862998 L11.4485459,20.6538996 L11.5169135,20.6204034 L11.5864845,20.585807 C11.5981788,20.579949 11.6099224,20.574045 11.6217149,20.568095 L11.6930534,20.5318405 C11.7050397,20.5257057 11.7170742,20.5195246 11.7291562,20.5132971 L11.8022168,20.4753752 L11.8764004,20.4363365 C11.9013132,20.4231371 11.9264098,20.4097507 11.9516869,20.3961769 L12.0280562,20.3548921 L12.1054882,20.3124781 L12.1839628,20.2689306 L12.2634599,20.2242455 L12.3439594,20.1784187 C12.3574584,20.1706855 12.3709984,20.1629045 12.3845788,20.1550758 L12.4665442,20.1075285 L12.5494618,20.0588291 L12.6333114,20.0089734 C12.6473629,20.0005675 12.6614524,19.9921132 12.6755795,19.9836106 L12.7607895,19.9320126 L12.8468814,19.8792479 C14.11671,19.0963086 15.3496349,18.1204311 16.4685321,16.9332833 C17.8847321,15.4306978 19.0273604,13.6824044 19.8147689,11.6738541 C20.7350803,9.32628999 21.1410193,6.6931753 20.9564302,3.76753114 C20.9324897,3.38808752 20.6525026,3.07405973 20.27828,3.00693189 L20.0390636,2.96375224 C19.9996577,2.95659313 19.9604805,2.94945186 19.9215276,2.94232704 L19.6904661,2.89976449 C19.6523925,2.89269995 19.6145342,2.8856491 19.5768868,2.87861056 L19.3534976,2.83651599 C19.3166759,2.82952116 19.2800561,2.82253588 19.2436339,2.81555877 L19.0274343,2.77378304 C16.4962702,2.28033512 14.9155736,1.8141336 12.686353,0.880980893 L12.4963886,0.801000303 C12.3048089,0.719886053 12.1082762,0.635337683 11.9058254,0.547056943 L11.7013662,0.457521033 C11.666949,0.442387346 11.6323584,0.42714722 11.5975901,0.411799275 L11.3868107,0.318406725 L11.1715499,0.222360235 C11.1352877,0.206127643 11.0988299,0.189781709 11.0621719,0.173321051 L10.8397868,0.0731693799 C10.6237663,-0.0243897933 10.3762337,-0.0243897933 10.1602132,0.0731693799 Z M10.5,1.7306683 L10.7058763,1.82256323 L10.9049803,1.91081064 L11.100533,1.99687562 L11.2926958,2.08080807 C11.3562031,2.10843568 11.4191723,2.13571617 11.4816303,2.16265787 L11.667498,2.24247491 C13.7264986,3.12260125 15.2420826,3.63184666 17.226213,4.08278572 L17.4051758,4.12302077 C17.7957589,4.20989504 18.2051188,4.29492549 18.6406478,4.3803954 L18.8435463,4.41988256 L19.0503225,4.45948203 L19.2611381,4.49924367 L19.3390825,4.51376167 L19.3413477,4.58962847 C19.4079668,6.98600588 19.0344866,9.14047477 18.2775784,11.0712238 C17.5702742,12.8754411 16.5435101,14.446455 15.2670082,15.8008211 C14.2532666,16.876399 13.1329364,17.7631562 11.9803424,18.4738121 C11.5791593,18.7211699 11.1958249,18.9333677 10.8385781,19.1118533 L10.7566662,19.152415 L10.6852938,19.1871661 C10.6736371,19.1927956 10.6621004,19.198344 10.6506852,19.2038115 L10.5836605,19.235647 L10.5196096,19.265549 L10.5,19.274543 L10.4496298,19.2512543 L10.3859854,19.2212962 L10.3195562,19.189507 L10.2503977,19.1558792 C10.2386469,19.1501209 10.2267847,19.1442857 10.2148122,19.1383734 C9.84246387,18.9544996 9.44089986,18.7335377 9.01965764,18.4738121 C7.86706362,17.7631562 6.74673335,16.876399 5.73299182,15.8008211 C4.4564899,14.446455 3.42972577,12.8754411 2.72242158,11.0712238 L2.69760754,11.0074916 C1.9573582,9.09309459 1.59276525,6.95967206 1.65865233,4.58962847 L1.66086586,4.51376167 L1.73886187,4.49924367 C1.80982489,4.48595722 1.88008779,4.47270611 1.94967746,4.45948203 L2.15645373,4.41988256 L2.35935218,4.3803954 C2.79488117,4.29492549 3.20424113,4.20989504 3.59482421,4.12302077 L3.77378696,4.08278572 C5.75791738,3.63184666 7.27350144,3.12260125 9.33250197,2.24247491 L9.51836965,2.16265787 C9.58082771,2.13571617 9.64379691,2.10843568 9.70730417,2.08080807 L9.89946701,1.99687562 L10.0950197,1.91081064 L10.2941237,1.82256323 L10.5,1.7306683 Z" id="Path"></path>
                </g>
            </g>
        </g>
    </g>
</svg>