<svg id="Layer_2" data-name="Layer 2" xmlns="http://www.w3.org/2000/svg" viewBox="0 0 541.04 112.47"><defs><style>.cls-1{fill:#37474f;}</style></defs><title>FTI_logo_final</title><path class="cls-1" d="M126.1,52.64v16.8h-4.57V52.64h-7.19V48h19v4.67h-7.2Z"/><path class="cls-1" d="M152.54,69.43v-9H140.9v9h-4.57V48h4.57v7.81h11.64V48h4.57V69.43h-4.57Z"/><path class="cls-1" d="M162.42,69.43V48h17.15v4.58H167.11v3.55h11.81v4.58H167.11v4.19h12.63v4.58H162.42Z"/><path class="cls-1" d="M198.22,52.54v3.73h11v4.58h-11v8.58h-4.57V48h16.19v4.58H198.22Z"/><path class="cls-1" d="M213.74,69.43V48h4.57V69.43h-4.57Z"/><path class="cls-1" d="M239.63,69.43L228.2,54.68V69.43h-4.57V48h5L240,62.78V48h4.55V69.43h-5Z"/><path class="cls-1" d="M259.38,52.64v16.8H254.8V52.64h-7.19V48h19v4.67h-7.2Z"/><path class="cls-1" d="M269.6,69.43V48h17.15v4.58H274.3v3.55h11.81v4.58H274.3v4.19h12.63v4.58H269.6Z"/><path class="cls-1" d="M308.22,68.81a16.71,16.71,0,0,1-1.86.65,14.23,14.23,0,0,1-2,.41A17.53,17.53,0,0,1,302,70a15.42,15.42,0,0,1-4.77-.7,10.22,10.22,0,0,1-3.75-2.12,9.6,9.6,0,0,1-2.45-3.53,14.41,14.41,0,0,1,0-9.89,9.6,9.6,0,0,1,2.45-3.53,10.22,10.22,0,0,1,3.75-2.12,15.42,15.42,0,0,1,4.77-.7,17.53,17.53,0,0,1,2.29.14,14.23,14.23,0,0,1,2,.41,16.8,16.8,0,0,1,1.86.65q0.9,0.38,1.79.84v5.22q-0.7-.48-1.48-1a11.84,11.84,0,0,0-1.71-.86,12.38,12.38,0,0,0-2.06-.62,12.05,12.05,0,0,0-2.53-.24,9.83,9.83,0,0,0-3.58.56,6,6,0,0,0-2.27,1.5,5.34,5.34,0,0,0-1.2,2.15,9.09,9.09,0,0,0-.34,2.51,9.7,9.7,0,0,0,.15,1.7,6.37,6.37,0,0,0,.49,1.58,5.62,5.62,0,0,0,.9,1.37,5.1,5.1,0,0,0,1.38,1.08,7.59,7.59,0,0,0,1.93.71,11.26,11.26,0,0,0,2.55.26,12.81,12.81,0,0,0,2.53-.23,11.86,11.86,0,0,0,2.06-.6,11.26,11.26,0,0,0,1.71-.85q0.78-.48,1.48-1V68Q309.12,68.43,308.22,68.81Z"/><path class="cls-1" d="M330.49,69.43v-9H318.85v9h-4.57V48h4.57v7.81h11.64V48h4.57V69.43h-4.57Z"/><path class="cls-1" d="M349.86,69.43V48h4.57V69.43h-4.57Z"/><path class="cls-1" d="M375.74,69.43L364.31,54.68V69.43h-4.57V48h5l11.44,14.81V48h4.55V69.43h-5Z"/><path class="cls-1" d="M401.61,54a13.67,13.67,0,0,0-1.27-.67,16.29,16.29,0,0,0-1.79-.71,17,17,0,0,0-2.17-.56,12.65,12.65,0,0,0-2.4-.23,15.51,15.51,0,0,0-1.68.08,8.4,8.4,0,0,0-1.17.2,3,3,0,0,0-.75.29,1.71,1.71,0,0,0-.42.34,0.86,0.86,0,0,0-.19.34,1.32,1.32,0,0,0,0,.31,1.1,1.1,0,0,0,.37.82,3.37,3.37,0,0,0,1,.63,12.57,12.57,0,0,0,1.49.52l1.81,0.5,2,0.56a19.06,19.06,0,0,1,2,.71,12.5,12.5,0,0,1,1.81.95,7,7,0,0,1,1.49,1.26,5.5,5.5,0,0,1,1,1.66,5.81,5.81,0,0,1,.37,2.14,7.32,7.32,0,0,1-.43,2.66,5.56,5.56,0,0,1-2.82,3.1,9.76,9.76,0,0,1-2,.71,13.17,13.17,0,0,1-2.11.33q-1.07.08-2,.08a19.73,19.73,0,0,1-8.43-1.83V63.06A13.71,13.71,0,0,0,389,64.92a15.53,15.53,0,0,0,4.63.67,11.76,11.76,0,0,0,2.37-.2,4.89,4.89,0,0,0,1.44-.5,1.76,1.76,0,0,0,.7-0.66,1.5,1.5,0,0,0,.18-0.69,1.25,1.25,0,0,0-.37-0.9,3.25,3.25,0,0,0-1-.67,11,11,0,0,0-1.49-.53L393.7,61l-2-.52a18.79,18.79,0,0,1-2-.66,12.73,12.73,0,0,1-1.81-.89,6.64,6.64,0,0,1-1.49-1.2,5.28,5.28,0,0,1-1-1.61,5.62,5.62,0,0,1-.37-2.12,6.87,6.87,0,0,1,.39-2.45,5.42,5.42,0,0,1,1.07-1.76,5.57,5.57,0,0,1,1.55-1.18,8.91,8.91,0,0,1,1.86-.7,12.72,12.72,0,0,1,2-.34q1-.09,1.9-0.09a17.1,17.1,0,0,1,2,.13,20.7,20.7,0,0,1,2.05.35q1,0.23,2,.52T401.61,49v5Z"/><path class="cls-1" d="M416.83,52.64v16.8h-4.58V52.64h-7.19V48h19v4.67h-7.2Z"/><path class="cls-1" d="M427.05,69.43V48h4.57V69.43h-4.57Z"/><path class="cls-1" d="M446.43,52.64v16.8h-4.58V52.64h-7.19V48h19v4.67h-7.2Z"/><path class="cls-1" d="M476,65.23a6.85,6.85,0,0,1-1.89,2.48A9.28,9.28,0,0,1,471,69.39a16,16,0,0,1-8.8,0A9.27,9.27,0,0,1,459,67.71a6.86,6.86,0,0,1-1.89-2.48,7.41,7.41,0,0,1-.63-3V48h4.56V60.12a9.25,9.25,0,0,0,.22,2,3.93,3.93,0,0,0,.81,1.68A4,4,0,0,0,463.79,65a7.82,7.82,0,0,0,2.81.42,7.72,7.72,0,0,0,2.79-.42,4,4,0,0,0,1.67-1.14,3.87,3.87,0,0,0,.81-1.68,9.56,9.56,0,0,0,.21-2V48h4.57V62.2A7.41,7.41,0,0,1,476,65.23Z"/><path class="cls-1" d="M491.32,52.64v16.8h-4.58V52.64h-7.19V48h19v4.67h-7.2Z"/><path class="cls-1" d="M501.54,69.43V48h17.15v4.58H506.24v3.55H518v4.58H506.24v4.19h12.63v4.58H501.54Z"/><g id="intact"><path class="cls-1" d="M57.36,21.26a36.11,36.11,0,1,0,36.1,36.11A36.11,36.11,0,0,0,57.36,21.26ZM68.94,85.33L63.47,84c0-14.3.13-36.69,0.13-36.69H69Zm0-52,0,12.64H63.53S62.69,38,53.11,38.71c-8.3.59-9,9.7-9.1,12.43l0.24,0,18.4-4.14c0,0.09,0,7.64,0,11.49H62.12c-0.67-2.75-2.24-7.51-7-7.45-7.87.09-10.25,4.45-11,8.39,0,0.08,0,.17,0,0.26-0.08.55-.13,1.26-0.16,2-0.07,1.44-.07,2.87-0.07,2.87s0,8.23,0,14.59L39.58,78c0-6,0-13,0-13l0.11-8.86c0-.32,0-0.64,0-1V54.6c0-.36,0-0.73,0-1.09,0-.18,0-0.37,0-0.54s0-.58,0-0.87c0.07-6.62.14-12.32,0.14-12.32l-0.08-1.34,29.45-9Z"/></g></svg>